<svg xmlns="http://www.w3.org/2000/svg" width="260" height="43.394" viewBox="0 0 260 43.394"><defs><style>.a{fill:#1473e6;}</style></defs><g transform="translate(-87.876 -655.852)"><g transform="translate(217.768 655.852)"><path d="M209.365,670.792v18.439H202.9V666.642a26.311,26.311,0,0,1,10.611-2.074,10.584,10.584,0,0,1,6.65,1.934,17.073,17.073,0,0,1,7.686-1.934q5,0,7.711,2.523a9.277,9.277,0,0,1,2.711,7.144v15h-6.46V674.706q0-4.762-4.244-4.763a8.846,8.846,0,0,0-4.386,1.132,15.8,15.8,0,0,1,.566,4.432v13.723h-6.319V674.706a5.391,5.391,0,0,0-1.014-3.584,4.041,4.041,0,0,0-3.23-1.179A9.035,9.035,0,0,0,209.365,670.792Z" transform="translate(-202.904 -655.088)"/><path d="M259.494,687.722a22.476,22.476,0,0,1-10.28,2.075q-4.669,0-7.192-2.05a6.575,6.575,0,0,1-2.522-5.353,6.453,6.453,0,0,1,2.594-5.424,11.269,11.269,0,0,1,6.885-2.027,26.8,26.8,0,0,1,4.2.377v-1.132q0-4.245-4.81-4.244a16.147,16.147,0,0,0-6.224,1.132l-1.179-5.093a21.151,21.151,0,0,1,8.158-1.415q5.139,0,7.758,2.594t2.617,7.451Zm-9.62-2.594a6.988,6.988,0,0,0,3.3-.659v-5.046a15.859,15.859,0,0,0-3.348-.377q-3.868,0-3.867,3.065Q245.96,685.129,249.875,685.128Z" transform="translate(-199.698 -655.088)"/><path d="M278.481,689.995l-5.425-9.194q-1.649,1.181-3.158,2.123v7.072h-6.507V656.182l6.507-.331v20.8a15.415,15.415,0,0,0,7.358-10.752h6.46q-.189,5.8-5.989,11.224l7.829,12.874Z" transform="translate(-197.605 -655.852)"/><path d="M305.843,688.194a19.822,19.822,0,0,1-8.253,1.6,12.721,12.721,0,0,1-9.266-3.418,12.27,12.27,0,0,1-3.514-9.219,12.812,12.812,0,0,1,3.254-9.1,11.015,11.015,0,0,1,8.442-3.49,9.737,9.737,0,0,1,7.427,2.971,10.808,10.808,0,0,1,2.8,7.734q0,1.7-.188,3.584h-14.9q.894,5.472,6.6,5.469a16.819,16.819,0,0,0,6.555-1.366Zm-9.337-18.439a4.38,4.38,0,0,0-3.325,1.368,6.634,6.634,0,0,0-1.627,3.773h8.96v-.567a4.983,4.983,0,0,0-1.06-3.3A3.626,3.626,0,0,0,296.506,669.755Z" transform="translate(-195.729 -655.088)"/><path d="M309.525,666.642a21.929,21.929,0,0,1,9.9-2.074,17.86,17.86,0,0,1,4.244.424l-.943,5.329a8.6,8.6,0,0,0-2.782-.377,9.076,9.076,0,0,0-3.915.8v18.486h-6.507Z" transform="translate(-193.564 -655.088)"/></g><path class="a" d="M107.46,691.966a14.271,14.271,0,1,0-5.571-27.41v-4.035a4.35,4.35,0,0,0-8.7,0v17.717h.027A14.278,14.278,0,0,0,107.46,691.966Zm-5.571-14.271a5.571,5.571,0,1,1,5.571,5.571A5.577,5.577,0,0,1,101.89,677.695Z" transform="translate(-2.797 0.028)"/><path class="a" d="M189.614,662.839a14.277,14.277,0,0,0-14.244,13.728h-.027v17.717a4.35,4.35,0,1,0,8.7,0v-4.035a14.271,14.271,0,1,0,5.571-27.41Zm0,8.7a5.571,5.571,0,1,1-5.571,5.571A5.578,5.578,0,0,1,189.614,671.54Z" transform="translate(10.437 0.612)"/><path class="a" d="M189.787,656.171a22.1,22.1,0,0,0-16.166,7.058,1.087,1.087,0,1,0,1.6,1.478,19.878,19.878,0,0,1,29.151,0,1.087,1.087,0,0,0,1.6-1.478A22.111,22.111,0,0,0,189.787,656.171Z" transform="translate(10.261 0.028)"/><path class="a" d="M121.913,687.929a19.876,19.876,0,0,1-29.151,0,1.088,1.088,0,0,0-1.6,1.479,22.053,22.053,0,0,0,32.342,0,1.088,1.088,0,0,0-1.6-1.479Z" transform="translate(-3 2.779)"/><path class="a" d="M134.715,691.382a13.491,13.491,0,0,1-10-3.924q-3.9-3.924-3.9-10.423t3.873-10.345a13.605,13.605,0,0,1,10.022-3.85,14.318,14.318,0,0,1,10.2,3.8q4.049,3.8,4.049,10.548a17.142,17.142,0,0,1-.2,2.7h-19.2a4.868,4.868,0,0,0,4.674,4.2,6.776,6.776,0,0,0,2.424-.325,4.273,4.273,0,0,0,1.175-.649,8.613,8.613,0,0,0,.975-1.075h9.248a12.262,12.262,0,0,1-4.8,6.774A14.3,14.3,0,0,1,134.715,691.382Zm3.649-20.021a5.434,5.434,0,0,0-3.549-1.223,5.046,5.046,0,0,0-3.449,1.223,5.337,5.337,0,0,0-1.749,3.175h10.446A4.548,4.548,0,0,0,138.364,671.361Z" transform="translate(1.636 0.612)"/><path class="a" d="M161.977,691.382a13.489,13.489,0,0,1-10-3.924q-3.9-3.924-3.9-10.423t3.874-10.345a13.605,13.605,0,0,1,10.022-3.85,14.318,14.318,0,0,1,10.2,3.8q4.049,3.8,4.049,10.548a17.135,17.135,0,0,1-.2,2.7h-19.2a4.868,4.868,0,0,0,4.673,4.2,6.778,6.778,0,0,0,2.425-.325,4.291,4.291,0,0,0,1.175-.649,8.7,8.7,0,0,0,.974-1.075h9.247a12.257,12.257,0,0,1-4.8,6.774A14.294,14.294,0,0,1,161.977,691.382Zm3.649-20.021a5.434,5.434,0,0,0-3.549-1.223,5.051,5.051,0,0,0-3.45,1.223,5.338,5.338,0,0,0-1.749,3.175h10.447A4.552,4.552,0,0,0,165.626,671.361Z" transform="translate(6.036 0.612)"/></g></svg>